<svg xmlns="http://www.w3.org/2000/svg" viewBox="0 0 200.7 288.35">
  <path d="M196.78 90.31c-6.19-29.23-18.52-45.41-23.94-51.82-6.69-7.91-38.6-43.2-86.46-37.97C37.67 5.86 14.21 48.6 11.34 54.06-5.87 86.73.63 119.07 4.39 136.4c13.62 62.92 68.83 135.7 118.7 135.18-5 5.33-7.66 10.36-6.19 13.27 3.11 6.15 25.1 3.64 26.77-3.29.77-3.19-2.74-7.5-8.68-11.57 52.3-13.79 75.62-114.3 61.79-179.69Zm-155.23.05c-6 23.31-2.5 37.92-5.94 38.87-4.74 1.31-19.25-24.31-13.54-48.24 6.45-27.05 35.88-40.1 39.1-35.74 2.52 3.41-12.1 15.91-19.62 45.12Z" style="fill:#f9a3c0"/>
</svg>
