<?xml version="1.0" encoding="UTF-8"?>
<svg id="Isolation_Mode" xmlns="http://www.w3.org/2000/svg" viewBox="0 0 720.5 423.46">
  <defs>
    <style>
      .cls-1 {
        fill: #693045;
      }

      .cls-2 {
        fill: #946cb3;
      }
    </style>
  </defs>
  <path class="cls-2" d="M62.29,313.91l74.52,109.09,35.59-121.13,91.36,85.12,21.48-115.52,90.14,80.01,29.43-118.41,85.36,69.23,7.62-130.78,101.88,54.25,5.6-121.16,115.23,32.74-27.84-117.5s-118.64,125.16-266.87,194.46c-148.23,69.3-273.42,99.26-363.5,99.58Z"/>
  <g>
    <path class="cls-1" d="M714.41.01c.2.2-1.6,2.36-5.22,6.31-3.63,3.93-9.01,9.71-16.15,16.94-7.21,7.16-15.94,16.03-26.52,25.86-2.63,2.48-5.35,5.04-8.16,7.69-2.87,2.58-5.82,5.25-8.87,7.99-3.05,2.74-6.19,5.55-9.41,8.44-3.29,2.81-6.67,5.7-10.13,8.65-1.73,1.48-3.48,2.97-5.26,4.48-.89.75-1.78,1.51-2.68,2.27-.92.74-1.84,1.49-2.76,2.24-3.71,3-7.49,6.06-11.36,9.18-3.83,3.17-7.92,6.17-12,9.34-4.12,3.12-8.24,6.4-12.61,9.5-4.33,3.15-8.74,6.35-13.22,9.6-4.55,3.15-9.18,6.34-13.87,9.58-4.67,3.28-9.55,6.4-14.44,9.63-2.45,1.61-4.92,3.23-7.41,4.86-2.49,1.62-5.04,3.18-7.58,4.79-2.55,1.6-5.11,3.21-7.69,4.83-2.58,1.62-5.17,3.25-7.82,4.83-5.27,3.18-10.61,6.4-16,9.65-10.86,6.36-21.95,12.87-33.34,19.28-2.84,1.61-5.7,3.24-8.56,4.87-2.88,1.61-5.77,3.22-8.67,4.84-5.81,3.23-11.67,6.48-17.56,9.76-5.91,3.25-11.87,6.52-17.86,9.82-2.97,1.67-6.08,3.24-9.14,4.87-3.08,1.61-6.14,3.27-9.29,4.76-3.14,1.53-6.26,3.06-9.38,4.58-3.15,1.44-6.3,2.87-9.43,4.29-1.57.71-3.14,1.41-4.7,2.12-1.58.67-3.16,1.34-4.73,2-3.15,1.32-6.28,2.67-9.42,3.96-6.32,2.46-12.54,5.05-18.83,7.3-3.13,1.15-6.25,2.3-9.36,3.44-3.13,1.08-6.24,2.16-9.34,3.23-24.82,8.54-49.18,15.42-72.53,21.29-46.73,11.7-89.52,19.03-125.61,23.65-36.1,4.6-65.56,6.41-85.93,6.42-10.19,0-18.1-.35-23.45-.92-1.34-.11-2.51-.25-3.52-.41-1.01-.15-1.86-.28-2.54-.4-1.36-.24-2.04-.44-2.03-.58s.73-.22,2.1-.25c.69-.01,1.54-.01,2.55,0,1.01.03,2.18.03,3.52,0,5.33.04,13.18-.13,23.29-.6,20.21-.98,49.42-3.65,85.23-8.95,35.8-5.32,78.25-13.2,124.55-25.21,23.13-6.03,47.26-13,71.79-21.56,3.06-1.07,6.14-2.15,9.23-3.24,3.07-1.14,6.15-2.29,9.25-3.44,6.21-2.24,12.35-4.81,18.59-7.26,3.08-1.3,6.18-2.61,9.29-3.93,1.55-.66,3.11-1.32,4.67-1.98,1.54-.7,3.08-1.4,4.63-2.1,3.09-1.41,6.19-2.82,9.29-4.24,3.07-1.5,6.14-3,9.23-4.51,3.11-1.47,6.11-3.1,9.13-4.68,3.02-1.6,6.03-3.12,9.02-4.8,5.99-3.28,11.95-6.54,17.86-9.78,5.9-3.26,11.75-6.49,17.56-9.7,2.9-1.61,5.79-3.21,8.67-4.8,2.86-1.61,5.72-3.22,8.56-4.82,11.39-6.35,22.46-12.77,33.32-19.03,5.39-3.2,10.72-6.36,15.98-9.49,2.65-1.55,5.23-3.15,7.81-4.74,2.58-1.59,5.14-3.17,7.69-4.73,2.54-1.58,5.09-3.1,7.58-4.69,2.48-1.6,4.95-3.18,7.4-4.75,4.89-3.16,9.77-6.2,14.44-9.41,4.7-3.16,9.32-6.28,13.88-9.35,4.49-3.17,8.9-6.29,13.24-9.35,4.38-3.02,8.51-6.22,12.65-9.25,4.1-3.08,8.21-5.99,12.06-9.08,3.89-3.04,7.71-6.01,11.44-8.92.93-.73,1.86-1.45,2.79-2.17.91-.74,1.81-1.48,2.7-2.21,1.79-1.47,3.56-2.92,5.31-4.35,3.5-2.86,6.92-5.66,10.25-8.39,3.27-2.8,6.46-5.53,9.56-8.18,3.1-2.65,6.11-5.23,9.03-7.72,2.87-2.55,5.65-5.03,8.34-7.42,10.84-9.47,19.86-17.99,27.39-24.78,7.46-6.87,13.18-12.29,17.19-15.83,3.98-3.57,6.17-5.35,6.37-5.15Z"/>
    <path class="cls-1" d="M172.4,313.32c2.05.68-11.1,45.99-29.67,102.38l-2.56,7.76-4.63-6.75c-1.15-1.68-2.31-3.37-3.48-5.08-17.56-25.68-33.08-49.19-43.99-66.44-10.9-17.25-17.18-28.23-16.26-28.86.92-.63,8.88,9.21,20.99,25.62,12.11,16.42,28.39,39.41,45.95,65.1,1.16,1.71,2.32,3.4,3.47,5.09l-7.18,1.01c18.79-56.31,35.3-100.51,37.35-99.83Z"/>
    <path class="cls-1" d="M503.37,184.01c1.12.02,1.94,13.21,2.37,34.54.43,21.33.47,50.8.01,83.37l-.11,7.71-6.29-4.47-.39-.28c-26.65-18.92-50.51-36.42-67.55-49.42-17.04-13-27.25-21.49-26.61-22.4.65-.91,12.04,5.93,29.92,17.73,17.89,11.8,42.28,28.56,68.92,47.48l.39.28-6.4,3.25c.47-32.57,1.34-62.03,2.37-83.34,1.04-21.31,2.23-34.48,3.35-34.46Z"/>
    <path class="cls-1" d="M286.36,283.16c.52-.01,1,2.89,1.16,8.12.16,5.22.07,12.78-.25,22.15-.66,18.74-2.24,44.74-4.58,73.91l-.55,6.89-5.73-3.89c-3.27-2.22-6.58-4.48-9.94-6.76-26.49-18.11-50.1-35.05-66.86-47.78-16.78-12.71-26.64-21.29-25.98-22.18.67-.91,11.7,6.01,29.29,17.5,17.57,11.51,41.67,27.68,68.13,45.77,3.34,2.29,6.65,4.55,9.9,6.78l-6.28,2.99c2.55-29.12,5.1-55.03,7.19-73.63,1.04-9.3,1.96-16.77,2.72-21.92.75-5.14,1.27-7.94,1.81-7.95Z"/>
    <path class="cls-1" d="M405.41,235.95c.28,0,.5.81.66,2.41.1.81.1,1.78.08,2.92-.02,1.14-.04,2.47-.13,3.94-.36,5.9-1.31,14.36-2.77,24.76-2.94,20.8-7.92,49.34-14.15,80.73-.11.53-.21,1.06-.32,1.58l-1.2,5.99-5.05-3.43c-26.18-17.77-49.4-34.42-65.86-46.93-16.47-12.5-26.13-20.93-25.47-21.81.67-.9,11.48,5.88,28.76,17.16,17.27,11.29,40.98,27.17,67.12,44.87l-6.24,2.56c.1-.52.21-1.05.31-1.57,6.22-31.34,12.08-59.67,16.46-80.14,2.18-10.24,3.98-18.5,5.29-24.21.32-1.42.61-2.68.86-3.78.27-1.1.52-2.02.68-2.76.36-1.48.69-2.29.97-2.29Z"/>
    <path class="cls-1" d="M688.19,31.01c1.09-.25,5.01,12.38,10.46,33.01,5.46,20.63,12.46,49.26,19.71,81.01l1.72,7.52-7.17-2.85-.44-.18c-30.36-12.09-57.68-23.46-77.31-32.06-19.63-8.6-31.56-14.45-31.15-15.49.41-1.04,13.1,2.92,33.27,10.16,20.17,7.24,47.83,17.76,78.19,29.85l.44.18-5.45,4.67c-7.24-31.76-13.35-60.59-17.38-81.54-4.03-20.95-5.98-34.03-4.89-34.28Z"/>
    <path class="cls-1" d="M605.27,104.62c.27-.07.68.67,1.21,2.18.29.76.52,1.7.77,2.82.25,1.11.54,2.41.8,3.86,1.05,5.82,2.12,14.27,3.16,24.72,2.05,20.9,3.96,49.81,5.32,81.78.02.54.04,1.08.07,1.61l.25,6.1-5.72-2.14c-29.64-11.08-56.13-21.77-75.08-30.05-18.96-8.26-30.33-14.16-29.9-15.17.44-1.03,12.54,3,32,9.88,19.45,6.89,46.24,16.72,75.82,27.75l-5.46,3.96c-.02-.53-.04-1.07-.07-1.6-1.36-31.92-2.36-60.84-2.94-81.76-.3-10.46-.5-18.92-.58-24.77-.02-1.45-.04-2.75-.06-3.88,0-1.13.03-2.09,0-2.84,0-1.52.13-2.39.41-2.45Z"/>
  </g>
</svg>
