<?xml version="1.0" encoding="UTF-8"?>
<svg id="Isolation_Mode" xmlns="http://www.w3.org/2000/svg" viewBox="0 0 754.3 324.07">
  <defs>
    <style>
      .cls-1 {
        fill: #de6693;
        opacity: .2;
      }

      .cls-2 {
        fill: #693045;
      }
    </style>
  </defs>
  <path class="cls-1" d="M51.76,36.86l-12.11,131.24,104.39-70.46,16.08,123.54,89.99-75.13,18.39,118.83,97.93-72.29,21.57,107.51,89.04-95.67,43.8,106.49,81.37-89.56,67.74,98.46,53.34-108.02s-170.79,20.74-328.81-20.28C236.47,150.5,121.2,93.91,51.76,36.86Z"/>
  <g>
    <path class="cls-2" d="M754.3,201.55c.06.56-6.54,1.78-18.54,3.51-3,.43-6.34.91-9.99,1.38-3.67.42-7.65.87-11.92,1.36-4.28.46-8.86.96-13.72,1.49-4.87.41-10.01.85-15.42,1.3-5.41.45-11.07.94-16.99,1.22-5.91.33-12.07.71-18.44,1.01-6.38.19-12.98.39-19.78.59-.85.02-1.7.05-2.56.07-.86,0-1.72,0-2.58.01-1.73,0-3.46.01-5.21.02-3.5,0-7.05.02-10.64.03-28.73-.15-60.34-1.9-93.27-5.67-32.93-3.74-64.07-8.77-92.29-13.68-14.1-2.5-27.49-4.92-40-7.3-6.25-1.18-12.3-2.29-18.14-3.53-5.82-1.22-11.37-2.53-16.65-3.85-21.11-5.31-37.77-10.98-49.16-15.16-11.38-4.23-17.49-7.04-17.31-7.54.19-.55,6.66,1.25,18.28,4.54,11.64,3.24,28.45,8.04,49.49,12.58,5.26,1.13,10.78,2.26,16.55,3.3,5.75,1.06,11.81,2.01,18.1,3.04,12.55,2.05,25.96,4.25,40.07,6.55,28.22,4.5,59.26,9.27,91.96,12.99,32.69,3.75,63.97,5.69,92.46,6.26,3.56.04,7.08.09,10.55.13,1.74.02,3.46.05,5.17.07.86.01,1.71.02,2.56.04.85,0,1.7-.02,2.54-.03,6.75-.06,13.31-.12,19.65-.18,6.34-.19,12.46-.37,18.35-.54,5.89-.12,11.53-.43,16.93-.7,5.39-.25,10.53-.5,15.39-.72,4.86-.3,9.44-.59,13.72-.86,4.29-.25,8.28-.48,11.95-.69,3.67-.25,7.02-.47,10.04-.68,12.07-.77,18.79-.93,18.85-.37Z"/>
    <path class="cls-2" d="M254.79,146.75c-.2.52-4.23-.54-11.34-2.92-3.55-1.21-7.91-2.66-12.87-4.57-4.96-1.93-10.59-4.16-16.81-6.67-6.2-2.54-12.89-5.54-20.12-8.7-3.62-1.55-7.29-3.33-11.09-5.1-3.8-1.79-7.7-3.63-11.71-5.52-15.89-7.83-33.27-16.66-51.05-26.77-2.23-1.25-4.45-2.49-6.65-3.73-2.18-1.27-4.35-2.54-6.5-3.8-4.29-2.53-8.53-5-12.66-7.49-8.21-5.07-16.15-9.91-23.54-14.81-7.47-4.77-14.38-9.61-20.88-14.07-3.22-2.28-6.29-4.54-9.26-6.69-1.48-1.08-2.93-2.14-4.35-3.17-1.39-1.07-2.75-2.12-4.08-3.15-2.65-2.06-5.17-4.03-7.56-5.88-2.32-1.94-4.51-3.78-6.56-5.49-1.02-.86-2-1.69-2.95-2.5-.94-.81-1.81-1.64-2.65-2.41-1.67-1.56-3.2-3-4.57-4.28-1.38-1.27-2.52-2.51-3.5-3.59-.98-1.08-1.79-2-2.43-2.77C.41,1.14-.16.24.04.04c.2-.2,1.15.31,2.77,1.44.81.57,1.79,1.29,2.92,2.17,1.13.88,2.41,1.91,3.94,2.99,1.49,1.11,3.15,2.34,4.97,3.69.91.67,1.83,1.41,2.83,2.12,1,.71,2.04,1.45,3.12,2.21,2.14,1.54,4.43,3.19,6.86,4.93,2.47,1.69,5.08,3.48,7.82,5.36,1.37.94,2.77,1.91,4.2,2.9,1.45.96,2.94,1.94,4.45,2.94,3.03,2,6.18,4.09,9.44,6.24,6.61,4.19,13.59,8.77,21.12,13.34,7.44,4.69,15.41,9.36,23.61,14.3,4.14,2.4,8.35,4.85,12.63,7.33,2.14,1.24,4.29,2.49,6.46,3.74,2.19,1.22,4.39,2.46,6.61,3.69,17.66,10.04,34.81,19,50.42,27.15,3.93,1.98,7.76,3.91,11.48,5.79,3.73,1.87,7.31,3.76,10.85,5.44,7.05,3.39,13.57,6.68,19.59,9.54,12.03,5.71,21.77,10.34,28.53,13.55,6.72,3.27,10.35,5.32,10.15,5.84Z"/>
    <path class="cls-2" d="M135.47,106.73c1.18,1.82-37.44,28.93-87.21,61.29l-6.85,4.45.62-8.16c.15-2.03.31-4.08.46-6.14,2.38-31.02,4.98-59.07,7.27-79.35,2.29-20.27,4.26-32.77,5.38-32.69,1.12.09,1.16,12.74.34,33.12-.83,20.39-2.52,48.51-4.9,79.53-.16,2.06-.32,4.11-.48,6.14l-6.23-3.71c49.89-32.17,90.43-56.31,91.61-54.49Z"/>
    <path class="cls-2" d="M474.54,213c.86.71-6.75,11.52-19.77,28.43-13.01,16.91-31.43,39.92-52.17,65.04l-4.91,5.95-2.11-7.42-.13-.46c-8.94-31.43-16.61-60.02-21.76-80.82-5.16-20.8-7.81-33.82-6.73-34.13,1.08-.31,5.68,12.16,12.24,32.56,6.57,20.4,15.1,48.73,24.05,80.17l.13.46-7.02-1.47c20.74-25.11,39.86-47.54,54.01-63.52,14.14-15.98,23.32-25.5,24.18-24.78Z"/>
    <path class="cls-2" d="M164.41,203.94c-2.14.67-10.59-20.23-18.44-46.83-3.92-13.3-6.93-25.5-8.65-34.45-1.73-8.95-2.16-14.65-1.09-14.93,1.1-.29,3.48,4.87,6.62,13.4,3.13,8.53,6.99,20.43,10.9,33.69,7.82,26.52,12.8,48.45,10.66,49.12Z"/>
    <path class="cls-2" d="M365.63,192.2c.22.17.1.71-.36,1.59-.23.44-.54.97-.93,1.58-.4.59-.89,1.22-1.45,1.94-.56.71-1.2,1.5-1.91,2.35-.72.83-1.52,1.71-2.38,2.66-1.72,1.9-3.74,3.99-6,6.26-9.04,9.1-22.1,21-36.93,33.65-13.7,11.7-26.51,21.99-36.47,29.52l-3.81,2.88-1.04-4.35c-3.37-14.13-4.9-23.21-3.74-23.54,1.16-.34,4.76,8.13,9.55,21.84l-4.85-1.47c9.12-8.49,21.42-19.37,35.1-31.04,14.8-12.63,28.41-23.81,38.36-31.76,2.5-1.97,4.76-3.75,6.75-5.32,1-.77,1.94-1.48,2.81-2.14.85-.66,1.63-1.26,2.35-1.79.71-.53,1.38-.98,1.94-1.37.54-.4,1.01-.72,1.42-.97.82-.5,1.37-.69,1.58-.52Z"/>
    <path class="cls-2" d="M714.45,209.32c1,.49-3.84,12.79-12.49,32.29s-21.11,46.21-35.33,75.52l-3.37,6.94-3.8-6.71-.24-.42c-16.12-28.43-30.31-54.39-40.24-73.39-9.92-18.99-15.58-31.02-14.6-31.57.97-.55,8.39,10.47,19.59,28.74,11.2,18.27,26.19,43.79,42.3,72.22l.24.42-7.17.23c14.23-29.3,27.5-55.61,37.47-74.48,9.97-18.86,16.64-30.28,17.64-29.8Z"/>
    <path class="cls-2" d="M603.7,214.84c.25.12.11.94-.43,2.46-.25.77-.66,1.65-1.16,2.68-.5,1.02-1.08,2.22-1.79,3.52-2.82,5.19-7.27,12.46-13,21.26-11.48,17.59-28.08,41.33-47.03,67.12-.32.43-.64.87-.96,1.3l-3.62,4.92-3.12-5.24c-16.18-27.19-30.15-52.11-39.76-70.42-9.62-18.31-14.8-30.03-13.83-30.55.99-.53,7.91,10.19,18.78,27.73,10.85,17.55,25.6,41.97,41.77,69.09l-6.74-.33c.32-.43.63-.86.95-1.29,18.92-25.75,36.23-48.93,48.87-65.61,6.31-8.35,11.45-15.07,15.05-19.68.89-1.15,1.69-2.17,2.38-3.06.71-.88,1.33-1.61,1.78-2.21.96-1.19,1.6-1.78,1.85-1.66Z"/>
  </g>
</svg>
