<?xml version="1.0" encoding="UTF-8"?>
<svg id="Camada_1" xmlns="http://www.w3.org/2000/svg" xmlns:xlink="http://www.w3.org/1999/xlink" viewBox="0 0 658.54 950.99">
  <defs>
    <style>
      .cls-1 {
        fill: #fffaf0;
      }

      .cls-2 {
        fill: #f9a3c0;
      }

      .cls-3 {
        fill: #2b2b65;
      }

      .cls-4 {
        fill: none;
        stroke: #f598b8;
        stroke-miterlimit: 10;
        stroke-width: 20px;
      }

      .cls-5 {
        fill: #693045;
      }

      .cls-6 {
        fill: #946cb3;
      }

      .cls-7 {
        clip-path: url(#clippath);
      }
    </style>
    <clipPath id="clippath">
      <path class="cls-2" d="M528.83,415.54s-13.22,23.61-42.36,65.46c-25.47,36.53-9.73,80.34,23.06,64.05,3.3-1.67,6.76-3.9,10.4-6.83l-6.42,43.03-285.88,5.57-.93-7.57-22.05-176.32,207.02-16.89,123.08-10.06-5.9,39.58Z"/>
    </clipPath>
  </defs>
  <polyline class="cls-2" points="416.2 71.27 518.85 8.63 519.73 117.32"/>
  <path class="cls-6" d="M535.42,129.65s27.55-42.56,84.75-15.86c57.2,26.7,33.49,102.45,33.49,102.45l-12.5-15.81-8.48,17.99-12.9-13.08-5.85,18.34-11.07-12.33-9.35,11.4"/>
  <path class="cls-6" d="M596.05,226.4c-20.89-110.83-141.09-169.86-263.61-139.23-122.52,30.63-136.54,249.3-136.54,249.3,90.42,5.44,248.8-32.37,345.7,28.7l-8.45,52.96s-13.22,23.61-42.36,65.46c-25.47,36.53-9.83,80.14,23.06,64.05,50.12-24.53,116.21-140.81,82.2-321.23Z"/>
  <path class="cls-6" d="M272.45,129.65s-28.17-42.56-86.64-15.86c-58.47,26.7-34.23,102.45-34.23,102.45l12.78-15.81,8.67,17.99,13.19-13.08,5.98,18.34,11.32-12.33,9.56,11.4"/>
  <g>
    <path class="cls-2" d="M528.83,415.54s-13.22,23.61-42.36,65.46c-25.47,36.53-9.73,80.34,23.06,64.05,3.3-1.67,6.76-3.9,10.4-6.83l-6.42,43.03-285.88,5.57-.93-7.57-22.05-176.32,207.02-16.89,123.08-10.06-5.9,39.58Z"/>
    <g class="cls-7">
      <g>
        <circle class="cls-4" cx="277.66" cy="673.33" r="120.83"/>
        <circle class="cls-4" cx="277.66" cy="673.33" r="173.01"/>
        <circle class="cls-4" cx="277.66" cy="673.33" r="224.02"/>
        <circle class="cls-4" cx="277.66" cy="673.33" r="267.66"/>
      </g>
    </g>
  </g>
  <path class="cls-2" d="M558.9,370.2l-15.59,1.15-9.47.67-122.93,9.02-214.52,15.67-16.56,1.23,1.11-8.09,8.17-58.74,126.01-10.95h.11l20.57-2.08h.04l2.26-.26,5.27-.52,1.15-.11,27.03-2.75,4.64-.45h.07l2.04-.22,25.51-2.6h.04l22.57-2.26h.04l34.42-3.49h.04l82.68-7.8,7.39-.71,7.91,73.29Z"/>
  <path class="cls-2" d="M495.67,231.09c-5.75.72-11.41,1.79-17.01,3.21,10.44-2.72,17.01-3.21,17.01-3.21-2.15-4.79-11.62-24.65-33.86-28.74-14.18-2.64-30.67-1.82-47.71,15.63-25.09,25.67-37.63,63.07-43.47,87.29-3.12-5.91-8-11.77-15.56-14.23-6.94-23.09-19.08-52.02-39.65-73.07-17.04-17.45-33.53-18.27-47.71-15.63-22.24,4.08-31.71,23.95-33.86,28.74,0,0,6.43.48,16.66,3.12-5.55-1.41-11.11-2.46-16.66-3.12-4.94,10.99-5.64,25.36,3.6,43.51,19.2,37.76,75.26,49.53,105.74,53.13,1.67,5.2,3.94,9.76,6.57,12.59,2.01,2.16,4.81,3.44,7.88,3.9,12.51,1.9,22.26-10.94,18.22-22.93,0,0-.28-2.15-1.1-5.28,12.01-17.44,34.97-47.5,59.77-62.76,9.76-6.01,19.16-10.4,27.55-13.63,2.49-.95,4.89-1.8,7.19-2.56-2.41.79-4.81,1.63-7.19,2.56-2.78,11.66-8.65,24.99-20.12,38.69-21.24,25.4-48.75,39.88-64.12,46.52l.48,3.75c27.4-2.45,92.71-12.59,113.76-53.98,9.24-18.16,8.54-32.52,3.6-43.51ZM342.11,298.77c-2.12,5.68-2.15,13.55-.82,21.16-15.59-7.91-36.68-21.24-53.72-41.62-11.47-13.7-17.34-27.03-20.12-38.69-2.57-.99-5.14-1.88-7.71-2.72,2.46.8,5.02,1.7,7.71,2.72,8.39,3.23,17.78,7.61,27.55,13.63,17.75,10.92,34.57,29.44,47.12,45.48v.04ZM250.74,234.27c2.31.6,4.83,1.32,7.49,2.16-2.5-.79-4.99-1.52-7.49-2.16ZM478.62,234.31c-2.37.6-4.71,1.3-7.05,2.03,2.5-.78,4.86-1.46,7.05-2.03Z"/>
  <path class="cls-3" d="M522.51,430.54c-1.4-.2-.55-14.19,1.89-31.25,2.44-17.06,5.54-30.73,6.94-30.53s.55,14.19-1.89,31.25c-2.44,17.06-5.54,30.73-6.94,30.53Z"/>
  <path class="cls-5" d="M346.79,283.65c.04-.12.31-.15.8-.1.49.05,1.21.18,2.11.49,1.78.59,4.39,1.77,7.1,4.1,2.73,2.28,5.52,5.68,7.81,10,1.16,2.16,2.19,4.54,3.08,7.11.88,2.6,1.64,5.27,2.14,8.36l-.1-.45c.89,2.63,1.3,5.55,1.02,8.51-.28,2.96-1.24,5.94-2.88,8.62-1.63,2.67-3.94,5.05-6.81,6.73-2.85,1.69-6.28,2.61-9.73,2.51-3.17-.07-6.28-.9-9.01-2.65-1.34-.85-2.59-2.06-3.49-3.19-.94-1.16-1.72-2.36-2.4-3.57-2.69-4.85-4.17-9.78-5.16-14.51-.92-4.74-1.32-9.25-1.17-13.46.15-4.19.84-8.08,2.2-11.36l-.1.57v-.04s.02-.36.02-.36l.09-.21c1.07-2.61,2.66-4.82,4.54-6.2,1.86-1.41,3.9-1.91,5.41-2.02,1.54-.12,2.75.1,3.51.38.76.28,1.08.58,1.04.72-.1.33-1.65-.07-4.25.65-1.3.36-2.76.98-4.06,2.24-1.3,1.23-2.39,3.08-3.11,5.36l.1-.57v.04s.01.22.01.22l-.11.36c-1.82,5.79-1.61,13.98.4,22.69,1.05,4.33,2.59,8.89,4.97,13.01.6,1.02,1.25,1.99,1.98,2.86.74.91,1.44,1.54,2.35,2.12,1.77,1.13,4.08,1.78,6.4,1.81,2.5.07,4.94-.57,7.04-1.78,2.11-1.21,3.88-2.96,5.15-4.97,1.28-2.01,2.06-4.27,2.33-6.51.28-2.25.04-4.48-.57-6.55l-.08-.27-.02-.17c-.32-2.58-.94-5.26-1.62-7.66-.71-2.42-1.53-4.68-2.46-6.72-1.83-4.11-4.08-7.37-6.29-9.7-2.19-2.38-4.36-3.81-5.85-4.76-.75-.49-1.35-.83-1.75-1.09-.4-.27-.59-.47-.55-.59Z"/>
  <path class="cls-6" d="M242.41,480.04c-4.64-34.41-34.7-29.28-34.7-29.28l-7.25-45.04-15.56,2.02s-21.38,81.51,3.69,103.79c25.06,22.28,58.48,2.92,53.84-31.49Z"/>
  <path class="cls-3" d="M207.72,516.08c.37-.05,1.44,5.72,3.06,16.11,1.62,10.4,3.78,25.43,6.33,43.93l-1.9-1.65c33.44-1.08,78.07-2.2,127.1-3.15,66.81-1.3,125.48-1.97,158.79-1.9l-1.32,1.16c1.56-9.08,2.85-16.25,3.81-21.13.96-4.88,1.6-7.48,1.84-7.45.25.04.09,2.71-.42,7.66-.51,4.95-1.37,12.17-2.54,21.32l-.14,1.11-1.18.05c-33.28,1.36-91.94,2.98-158.74,4.28-49.03.96-93.68,1.56-127.13,1.81h-1.72s-.19-1.65-.19-1.65c-2.08-18.56-3.69-33.66-4.67-44.14-.99-10.48-1.36-16.33-.99-16.37Z"/>
  <g>
    <path class="cls-5" d="M515.2,113.22c-.68,0-1.4-12.03-2.02-31.63s-1.13-46.77-1.41-77.04l3.88,2.16c-1.63,1-3.28,2-4.93,3.01-26.98,16.47-51.56,31.13-69.48,41.53-17.92,10.4-29.19,16.53-29.56,15.93s10.24-7.82,27.68-19.01c17.44-11.19,41.72-26.34,68.71-42.8,1.65-1.01,3.3-2.01,4.93-3.01l3.85-2.34.03,4.5c.21,30.27.14,57.44-.16,77.06-.3,19.61-.82,31.66-1.51,31.66Z"/>
    <path class="cls-5" d="M515.2,46.55c-1.06.93-7.35-4.54-14.04-12.21-6.69-7.67-11.25-14.64-10.19-15.57,1.06-.93,7.35,4.54,14.04,12.21,6.69,7.67,11.25,14.64,10.19,15.57Z"/>
    <path class="cls-5" d="M514.52,76.08c-1.06.93-10.71-8.39-21.55-20.82-10.84-12.42-18.76-23.25-17.7-24.18,1.06-.93,10.71,8.39,21.55,20.82,10.84,12.42,18.76,23.25,17.7,24.18Z"/>
    <path class="cls-5" d="M514.86,106.77c-1.06.93-14.3-12.51-29.56-30.01-15.26-17.5-26.77-32.44-25.71-33.36,1.06-.93,14.3,12.51,29.56,30.01,15.26,17.5,26.78,32.44,25.71,33.36Z"/>
    <path class="cls-5" d="M474.13,90.38c-1.06.93-9.74-7.28-19.38-18.34s-16.59-20.77-15.53-21.69,9.74,7.28,19.38,18.34c9.64,11.05,16.59,20.77,15.53,21.69Z"/>
    <path class="cls-5" d="M438.27,79.12c-1.06.93-5.71-2.67-10.38-8.02-4.67-5.36-7.6-10.45-6.54-11.38,1.06-.93,5.71,2.67,10.38,8.02,4.67,5.36,7.6,10.45,6.54,11.38Z"/>
    <path class="cls-5" d="M585.79,216.15c-.3-.24,2.77-4.55,8.52-12.08l.73-.96.89.92c3.18,3.3,7.01,7.35,11.4,12.03l-2.57.55c1.65-5.52,3.5-11.7,5.52-18.45l.88-2.93,2.22,2.19c4.09,4.04,8.45,8.35,13.07,12.92l-3.39.58c2.64-5.74,5.41-11.77,8.31-18.07l1.54-3.34,2.32,2.9c4.05,5.06,8.27,10.31,12.61,15.73l-4.21.78c1.06-3.68,1.92-7.7,2.63-11.71.71-4.04,1.24-8.17,1.58-12.37.67-8.4.6-17.09-.75-25.74-.82-5.32-2.1-10.49-3.9-15.37-1.82-4.87-4.17-9.44-6.99-13.58-1.35-2.11-2.97-4-4.54-5.89-.85-.89-1.69-1.78-2.53-2.66-.4-.46-.86-.86-1.32-1.26l-1.35-1.21-1.35-1.2c-.46-.39-.95-.73-1.43-1.09-.96-.72-1.91-1.43-2.85-2.14-1-.63-2-1.26-2.99-1.88l-1.48-.93-1.55-.81c-1.03-.54-2.05-1.08-3.07-1.61-1.03-.51-2.11-.95-3.15-1.43-2.07-.98-4.19-1.75-6.27-2.56-1.03-.43-2.09-.73-3.12-1.08-1.04-.33-2.07-.7-3.1-.99-2.08-.53-4.11-1.15-6.16-1.51-8.13-1.74-15.95-1.92-22.92-.96-3.49.46-6.75,1.3-9.79,2.24-3.04.95-5.79,2.16-8.33,3.39-2.52,1.25-4.77,2.62-6.8,3.94-2,1.36-3.79,2.69-5.33,3.96-6.16,5.12-8.8,8.81-9.1,8.58-.28-.16,1.84-4.31,7.78-10.07,1.49-1.43,3.24-2.92,5.24-4.46,2.03-1.49,4.3-3.04,6.88-4.48,2.59-1.41,5.44-2.81,8.61-3.94,3.17-1.11,6.59-2.12,10.28-2.73,7.36-1.27,15.69-1.29,24.3.37,2.17.34,4.31.94,6.51,1.46,1.09.28,2.17.65,3.27.97,1.09.34,2.21.65,3.29,1.07,2.18.8,4.41,1.58,6.58,2.56,1.09.48,2.21.92,3.31,1.44,1.09.55,2.19,1.11,3.29,1.67.55.28,1.11.56,1.66.84l1.6.98c1.07.66,2.15,1.32,3.23,1.99,1.03.75,2.06,1.51,3.1,2.27.51.39,1.05.75,1.55,1.17l1.47,1.28,1.48,1.29c.5.43.99.86,1.44,1.35.92.95,1.84,1.9,2.77,2.86,1.72,2.04,3.49,4.08,4.98,6.36,3.09,4.47,5.65,9.41,7.62,14.64,1.94,5.24,3.31,10.74,4.18,16.36,1.42,9.14,1.46,18.22.72,26.94-.37,4.36-.96,8.64-1.72,12.82-.78,4.2-1.67,8.22-2.89,12.29l-1.34,4.45-2.87-3.68c-4.27-5.48-8.41-10.79-12.4-15.9l3.86-.44c-3.01,6.24-5.91,12.23-8.65,17.91l-1.32,2.73-2.07-2.15c-4.5-4.68-8.75-9.11-12.73-13.25l3.1-.74c-2.26,6.67-4.33,12.78-6.18,18.24l-.86,2.54-1.71-1.99c-4.19-4.87-7.8-9.11-10.74-12.63l1.62-.04c-6.25,7.11-9.88,10.96-10.18,10.72Z"/>
    <path class="cls-5" d="M449.32,299.98c-.02-.16,2.09-.52,6.14-1.05s10.03-1.25,17.77-2.12c15.48-1.75,37.97-4.13,66-7.01l1.63-.17.19,1.65c2.44,21.4,5.25,46.03,8.35,73.23l.25,2.17-2.2.17c-58.45,4.55-128.74,9.86-204.38,15.39-63.21,4.63-122.71,8.87-174.69,12.48l-2.78.19.39-2.74c3.45-24.01,6.67-46.39,9.6-66.79l.22-1.53,1.52-.12c38.64-3.13,70.18-5.58,92.06-7.16,10.94-.79,19.47-1.36,25.27-1.68,5.8-.32,8.86-.4,8.88-.21.02.19-3.02.64-8.78,1.33-5.77.68-14.26,1.6-25.18,2.71-21.83,2.23-53.31,5.26-91.91,8.85l1.74-1.65c-2.74,20.42-5.74,42.84-8.96,66.87l-2.39-2.55c51.95-4,111.44-8.46,174.65-13.09,75.63-5.54,145.95-10.53,204.44-14.54l-1.96,2.35c-2.77-27.24-5.28-51.9-7.46-73.33l1.82,1.49c-28.07,2.43-50.61,4.3-66.14,5.48-7.76.59-13.78,1.01-17.85,1.24s-6.21.28-6.23.12Z"/>
    <path class="cls-5" d="M366.02,309.26c-.2-1.4,6.39-3.48,14.71-4.66,8.32-1.18,15.22-1,15.42.4.2,1.4-6.39,3.48-14.71,4.66-8.32,1.18-15.22,1-15.42-.4Z"/>
    <path class="cls-5" d="M453.79,232.22c.33.08.29,1.86-.32,4.99-.63,3.12-1.86,7.6-4.12,12.86-2.23,5.27-5.55,11.28-9.97,17.43-4.45,6.14-9.97,12.34-16.31,18.3-12.73,11.9-26.26,20.17-36.36,25.21-5.07,2.53-9.3,4.28-12.29,5.33-2.99,1.05-4.72,1.41-4.86,1.1-.15-.34,1.32-1.31,4.02-2.9,2.7-1.58,6.64-3.8,11.39-6.69,9.49-5.76,22.31-14.27,34.62-25.78,6.12-5.76,11.58-11.68,16.03-17.4,4.44-5.74,7.93-11.29,10.48-16.16,5.12-9.75,6.93-16.48,7.7-16.29Z"/>
    <path class="cls-5" d="M370.03,321.18c-.03-.36,2.39-.89,6.77-1.7,4.38-.81,10.71-1.91,18.45-3.58,7.73-1.67,16.89-3.9,26.78-7.16,9.87-3.27,20.53-7.54,30.73-13.66,10.19-6.09,18.79-13.62,24.7-21.89.71-1.05,1.4-2.1,2.09-3.12.65-1.05,1.23-2.12,1.84-3.16,1.17-2.11,2.2-4.25,3.11-6.33,1.82-4.17,3.12-8.21,3.91-11.97,1.63-7.55,1.08-13.88.31-18.15-.84-4.28-1.69-6.61-1.33-6.77.27-.13,1.76,1.94,3.25,6.28.69,2.18,1.36,4.92,1.67,8.19.32,3.26.26,7.02-.36,11.1-.61,4.08-1.79,8.46-3.55,12.95-.88,2.25-1.88,4.52-3.05,6.81-.62,1.14-1.21,2.31-1.88,3.46-.71,1.13-1.43,2.27-2.16,3.42-3.08,4.51-6.88,8.84-11.27,12.81-4.38,3.97-9.33,7.57-14.66,10.77-10.68,6.4-21.75,10.67-31.94,13.77-10.21,3.1-19.61,4.99-27.54,6.23-7.93,1.23-14.4,1.79-18.88,2-4.48.2-6.97.06-7-.28Z"/>
    <path class="cls-5" d="M366.02,309.26c-.25-.17,1.81-3.83,6.1-10.17,2.14-3.17,4.86-7,8.17-11.35,3.3-4.36,7.22-9.23,11.81-14.43,4.59-5.2,9.85-10.74,15.98-16.27,1.54-1.37,3.09-2.79,4.77-4.12.83-.68,1.66-1.36,2.51-2.05.85-.68,1.75-1.32,2.63-1.99.9-.66,1.77-1.35,2.7-1.99.94-.63,1.89-1.26,2.84-1.9,1.9-1.31,3.87-2.46,5.89-3.66,8.07-4.72,16.98-9.02,26.64-12.55,4.82-1.77,9.83-3.33,15.01-4.64,2.59-.66,5.22-1.26,7.89-1.77,2.7-.51,5.34-.95,8.25-1.23l-2.12,3.56c-2.97-6.52-7.17-12.73-12.65-17.62-4.26-3.89-9.28-6.71-14.57-8.43-2.64-.84-5.37-1.4-8.19-1.79-2.78-.41-5.55-.58-8.28-.54-5.46.03-10.73,1.17-15.59,3.1-4.85,1.98-9.23,4.81-13.16,8.04-1.98,1.6-3.79,3.35-5.57,5.12-.86.92-1.72,1.84-2.56,2.75-.85.91-1.71,1.79-2.48,2.76-3.19,3.73-6.12,7.51-8.74,11.32-5.27,7.61-9.5,15.18-13.01,22.27-3.52,7.09-6.25,13.73-8.52,19.61-1.16,2.93-2.11,5.71-3.04,8.25-.85,2.57-1.69,4.89-2.36,7.02-2.74,8.47-4.09,13.23-4.47,13.14-.31-.07.39-4.99,2.56-13.69.52-2.18,1.22-4.57,1.95-7.21.8-2.61,1.62-5.46,2.67-8.48,2.04-6.05,4.57-12.88,7.95-20.19,3.36-7.32,7.5-15.16,12.77-23.1,2.62-3.97,5.57-7.93,8.82-11.85.78-1.01,1.66-1.94,2.53-2.9.87-.96,1.74-1.92,2.63-2.89,1.84-1.89,3.75-3.79,5.86-5.53,4.17-3.52,8.94-6.69,14.32-8.94,5.38-2.2,11.32-3.52,17.36-3.59,3.01-.06,6.05.12,9.05.54.76.08,1.5.21,2.25.34.75.12,1.49.23,2.26.43l2.28.53,1.14.27,1.12.38c5.99,1.91,11.7,5.13,16.44,9.47,6.12,5.47,10.65,12.24,13.86,19.34l1.46,3.24-3.58.32c-2.48.22-5.15.65-7.7,1.12-2.57.48-5.11,1.03-7.61,1.66-5.01,1.23-9.88,2.72-14.57,4.39-9.39,3.33-18.12,7.4-26.04,11.88-1.97,1.13-3.95,2.24-5.76,3.45-.92.59-1.84,1.18-2.75,1.77-.9.6-1.76,1.25-2.64,1.87-.87.63-1.74,1.23-2.58,1.87-.83.65-1.65,1.3-2.47,1.94-1.66,1.26-3.2,2.61-4.73,3.91-6.11,5.25-11.43,10.56-16.12,15.54-4.69,4.99-8.76,9.65-12.23,13.81-3.49,4.15-6.4,7.79-8.77,10.78-4.72,5.97-7.3,9.28-7.58,9.08Z"/>
    <path class="cls-5" d="M333.01,312.53c-.29.59-6.31-1.53-15.3-6.53-8.95-5-20.89-13.03-32-24.28-5.55-5.6-10.39-11.42-14.24-17.12-3.82-5.72-6.67-11.26-8.59-16.08-1.93-4.82-3.01-8.89-3.53-11.74-.51-2.85-.52-4.47-.19-4.55.77-.19,2.47,5.89,7.01,14.79,2.26,4.45,5.3,9.55,9.16,14.88,3.88,5.3,8.64,10.81,14.01,16.23,10.73,10.87,21.97,19.12,30.28,24.81,8.33,5.68,13.74,8.93,13.4,9.6Z"/>
    <path class="cls-5" d="M334.91,320.33c-.07.63-9.56.46-24.65-2.23-7.54-1.36-16.46-3.43-26.13-6.66-9.64-3.24-20.08-7.67-30.05-14.18-9.96-6.47-18.34-14.63-23.83-23.52-2.76-4.45-4.8-8.93-6.37-13.25-1.57-4.33-2.58-8.54-3.07-12.45-.5-3.91-.47-7.5-.13-10.61.36-3.11,1.05-5.72,1.73-7.79,1.46-4.13,2.89-6.09,3.16-5.96.36.16-.43,2.39-1.24,6.47-.36,2.05-.73,4.55-.81,7.48-.06,2.92.16,6.25.85,9.85.68,3.6,1.82,7.48,3.46,11.5,1.65,4.01,3.73,8.21,6.38,12.23,5.3,8.11,13.18,15.62,22.66,21.79,9.48,6.2,19.5,10.61,28.81,14.01,9.33,3.38,17.99,5.77,25.33,7.56,14.68,3.55,24,4.99,23.9,5.76Z"/>
    <path class="cls-5" d="M333.83,291.33c-.26.21-2.65-2.44-7.01-7.23-4.37-4.78-10.7-11.75-19.27-19.66-4.3-3.94-9.18-8.08-14.75-12.08-5.54-4-11.96-7.67-18.94-11.16-6.98-3.47-14.59-6.63-22.73-9.27-4.07-1.32-8.27-2.49-12.59-3.48-2.16-.51-4.35-.94-6.55-1.33-2.19-.38-4.49-.73-6.61-.92l-3.56-.32,1.45-3.23c3.55-7.92,8.85-15.46,16.11-21.24,4.48-3.57,9.61-6.28,14.99-7.85,1.34-.38,2.71-.66,4.06-.98,1.35-.28,2.66-.49,4-.67,2.67-.39,5.36-.54,8.04-.59,5.36.02,10.68.84,15.59,2.51,4.91,1.69,9.38,4.15,13.35,7.01,4,2.83,7.42,6.15,10.53,9.46.77.84,1.52,1.67,2.28,2.49.75.83,1.43,1.7,2.14,2.54.7.85,1.42,1.67,2.07,2.53.65.86,1.3,1.71,1.94,2.56,5.1,6.79,9.18,13.56,12.54,19.9,3.35,6.35,5.97,12.29,8.08,17.56,2.11,5.28,3.7,9.9,4.88,13.72,2.36,7.63,3.22,11.97,2.91,12.06-.36.11-1.87-4.03-4.78-11.39-1.46-3.68-3.3-8.16-5.63-13.26-2.33-5.1-5.14-10.84-8.62-16.95-3.49-6.11-7.65-12.59-12.73-19.06-.64-.8-1.28-1.62-1.93-2.43-.65-.82-1.36-1.59-2.05-2.4-.7-.79-1.38-1.62-2.11-2.41-.74-.78-1.49-1.57-2.24-2.36-3.03-3.12-6.27-6.16-9.99-8.71-3.69-2.58-7.77-4.75-12.18-6.22-4.42-1.45-9.16-2.14-14.01-2.13-2.43.07-4.89.21-7.37.59-1.23.17-2.5.38-3.71.64-1.19.3-2.41.54-3.6.88-4.76,1.4-9.26,3.8-13.26,6.98-6.47,5.14-11.38,12.03-14.68,19.31l-2.11-3.54c2.52.24,4.79.6,7.11,1.02,2.3.43,4.57.9,6.8,1.44,4.46,1.06,8.79,2.32,12.97,3.72,8.36,2.82,16.13,6.18,23.24,9.88,7.08,3.71,13.6,7.63,19.26,11.95,5.64,4.29,10.49,8.68,14.71,12.85,8.41,8.37,14.4,15.74,18.36,20.91,3.95,5.19,5.86,8.2,5.62,8.39Z"/>
    <path class="cls-5" d="M199.3,448.69c-.03-.17.79-.5,2.43-.74,1.63-.24,4.08-.42,7.22-.09,3.12.36,7.02,1.2,11.06,3.41,4.03,2.18,8.08,5.88,10.96,10.93,1.46,2.5,2.64,5.31,3.51,8.31.86,3.01,1.55,6.16,1.86,9.52.33,3.35.37,6.87-.08,10.47-.46,3.6-1.42,7.27-2.97,10.82-3.06,7.08-8.83,13.67-16.65,17.26-3.89,1.77-8.21,2.87-12.64,2.92-4.42.07-8.92-.69-13.09-2.38-4.18-1.65-7.97-4.03-11.27-6.79-.41-.35-.83-.68-1.24-1.04l-1.18-1.2-1.17-1.2-1-1.31-.99-1.31c-.33-.44-.57-.92-.85-1.37-.53-.93-1.14-1.83-1.54-2.8-1.9-3.78-3.04-7.7-3.9-11.54-.89-3.84-1.32-7.64-1.65-11.33-.57-7.39-.43-14.4,0-20.9.43-6.51,1.17-12.52,1.99-17.99,1.66-10.92,3.67-19.62,5.24-25.58,1.59-5.96,2.79-9.16,3.13-9.07.35.09-.2,3.44-1.18,9.49-.97,6.04-2.42,14.78-3.6,25.62-.58,5.42-1.1,11.37-1.34,17.74-.23,6.37-.21,13.19.46,20.26.38,3.52.85,7.12,1.72,10.67.84,3.55,1.93,7.12,3.62,10.39.36.86.89,1.6,1.35,2.39.25.38.45.81.73,1.16l.83,1.08.83,1.09.95.96.95.97c.35.31.73.61,1.1.92,2.95,2.45,6.27,4.52,9.88,5.94,7.2,2.89,15.22,2.7,21.79-.33,6.62-2.97,11.64-8.5,14.43-14.64,1.41-3.08,2.32-6.3,2.81-9.51.48-3.21.53-6.4.31-9.48-.19-3.08-.75-6.06-1.44-8.83-.7-2.78-1.67-5.35-2.88-7.63-2.38-4.61-5.75-8.02-9.24-10.21-3.5-2.22-7.02-3.28-9.92-3.91-2.92-.61-5.27-.76-6.86-.85-1.6-.09-2.45-.11-2.48-.28Z"/>
    <path class="cls-5" d="M192.97,398.15c-.45.06-1.04-1.24-1.7-3.57l2.49-.31c1.39,4.88,3.09,14.26,4.45,25.11,2,16.01,2.49,29.14,1.09,29.31-1.4.17-4.15-12.66-6.16-28.68-1.35-10.84-2.02-20.36-1.87-25.43l2.49-.31c-.08,2.42-.33,3.82-.78,3.88Z"/>
    <g>
      <path class="cls-1" d="M418.08,97.78c-1.45,11.66-12.44,28.22-33.38,25.77-20.94-2.41-20.53-18.64-20.53-18.64,0,0,.33-.85,1.3-2.19,6.24,2.34,13.14,4.05,21.57,3.53,13.11-.78,22.43-5.09,30.78-9.02.19.33.26.56.26.56Z"/>
      <path class="cls-1" d="M450.49,122.92c-6.87,18.04-25.73,37.31-61.89,39.76-13.85.93-25.62-.89-35.38-4.46,0,0,.63-19.45,14.74-22.54s22.57,6.16,32.56,3.45c10.02-2.67,11.96-15.37,23.09-20.79,11.18-5.38,26.88,4.57,26.88,4.57Z"/>
      <path class="cls-5" d="M380.62,102.66c-.01-.18,1.22-.47,3.56-.86,2.33-.41,5.74-1.14,10.01-2.43,4.27-1.32,9.29-3.44,15.02-6.3,2.87-1.4,5.96-2.98,9.38-4.44,3.41-1.45,7.22-2.84,11.48-3.38,2.12-.24,4.32-.39,6.56-.21.58.04,1.07,0,1.76.14.65.09,1.3.26,1.92.49,1.26.45,2.43,1.18,3.42,2.06,1.98,1.79,3.26,4.12,4.1,6.5.83,2.4,1.27,4.9,1.42,7.43.3,5.06-.46,10.24-1.99,15.31-1.54,5.06-3.87,10.04-6.97,14.67-6.15,9.3-15.37,17.18-26.32,22.24-10.93,5.15-23.35,7.57-35.95,7.94-12.62.37-25.21-1.61-36.27-6.53-11.06-4.85-20.42-12.62-26.58-21.96-3.07-4.67-5.39-9.69-6.72-14.88-1.31-5.17-1.71-10.54-.5-15.64.61-2.53,1.65-4.99,3.21-7.1,1.55-2.11,3.64-3.81,5.95-4.86,1.19-.54,2.28-.84,3.36-1.19.54-.17,1.1-.29,1.65-.43.55-.15,1.09-.27,1.65-.36,2.2-.44,4.41-.62,6.55-.58,4.31.04,8.29,1.05,11.82,2.28,3.54,1.25,6.69,2.72,9.61,4.06,5.82,2.72,10.85,4.78,15.16,5.9,4.3,1.14,7.76,1.51,10.11,1.71,2.35.2,3.61.24,3.63.44.01.15-1.23.45-3.64.59-2.4.14-6.01.08-10.54-.8-4.54-.85-9.91-2.73-15.84-5.21-2.98-1.21-6.12-2.53-9.5-3.59-3.37-1.04-7-1.82-10.81-1.75-1.9.02-3.84.22-5.79.67-.49.09-.98.21-1.46.36-.49.14-.98.25-1.47.42-.97.34-1.98.66-2.8,1.06-1.69.83-3.18,2.09-4.32,3.7-1.14,1.61-1.94,3.56-2.4,5.65-.93,4.21-.54,8.94.71,13.54,1.26,4.62,3.43,9.17,6.29,13.4,5.74,8.47,14.4,15.55,24.69,20,10.29,4.51,22.1,6.36,34.12,6.01,12.04-.35,23.78-2.64,33.99-7.37,10.22-4.66,18.76-11.85,24.53-20.33,2.9-4.23,5.1-8.78,6.58-13.38,1.48-4.6,2.23-9.31,2.05-13.75-.08-2.22-.43-4.37-1.06-6.33-.64-1.95-1.6-3.69-2.88-4.91-.64-.6-1.36-1.06-2.13-1.36-.77-.31-1.54-.43-2.61-.47-1.99-.21-3.94-.13-5.84.03-3.81.37-7.37,1.52-10.69,2.81-3.33,1.29-6.44,2.72-9.4,4.02-5.89,2.64-11.22,4.57-15.69,5.63-4.48,1.03-8.02,1.46-10.43,1.54-2.41.07-3.67.02-3.68-.16Z"/>
      <path class="cls-5" d="M411.67,94.17c.17.02.3.31.37.85.05.54.15,1.36,0,2.36-.14,2.05-.87,4.96-2.44,8.31-1.58,3.33-4.14,7.08-7.97,10.32-3.83,3.21-9.08,5.66-14.83,6.41-.71.14-1.43.17-2.14.2-.71.03-1.42.06-2.12.09-1.4,0-2.76-.16-4.11-.24-1.34-.15-2.63-.44-3.9-.66-1.26-.27-2.49-.71-3.68-1.06-4.76-1.63-8.56-4.71-10.73-7.88-.3-.38-.53-.79-.75-1.19-.22-.4-.44-.79-.64-1.16-.32-.8-.68-1.52-.89-2.25-.22-.72-.42-1.39-.51-2.02-.13-.62-.19-1.2-.22-1.72-.13-2.08.27-3.23.61-3.22.36,0,.65,1.06,1.33,2.81.17.44.36.92.6,1.42.21.52.51,1.05.81,1.62.29.58.71,1.13,1.07,1.74.22.28.45.57.68.87.23.3.46.61.75.88,2.13,2.32,5.27,4.47,9.36,5.63,4.06,1.15,8.97,1.73,13.79,1.08,4.84-.65,9.18-2.52,12.59-5.05,3.4-2.56,5.93-5.6,7.73-8.37,3.63-5.59,4.41-9.9,5.21-9.78Z"/>
      <path class="cls-5" d="M444.06,119.3c-.19.31-1.78-.33-4.65-1.35-2.86-.97-7.05-2.48-12.23-2.83-2.56-.15-5.37.05-7.96,1.12-.32.14-.64.27-.97.41-.32.15-.64.37-.97.55-.32.19-.66.37-.98.58-.31.23-.62.45-.94.68-1.26.91-2.43,2.04-3.58,3.28-2.29,2.52-4.31,5.64-6.9,8.93-1.32,1.63-2.84,3.29-4.75,4.7-.5.33-.97.7-1.5,1-.55.28-1.09.56-1.64.84-1.15.44-2.33.88-3.56,1.06-2.44.46-4.9.33-7.11-.07-2.21-.43-4.22-1.05-6.14-1.66-1.91-.62-3.7-1.18-5.46-1.67-.87-.2-1.74-.46-2.59-.59-.43-.08-.85-.16-1.27-.24-.42-.05-.84-.1-1.26-.14-1.67-.2-3.3-.18-4.88-.07-.79.05-1.56.21-2.33.3-.4.04-.73.13-1.08.21-.35.07-.69.17-1.02.28-2.68.84-4.83,2.49-6.46,4.39-1.64,1.9-2.75,4-3.61,5.9-.84,1.92-1.42,3.67-1.86,5.11-.86,2.9-1.22,4.58-1.58,4.56-.34,0-.66-1.77-.37-4.94.15-1.58.47-3.52,1.13-5.72.68-2.19,1.67-4.68,3.45-7.14,1.75-2.44,4.4-4.84,7.88-6.15.43-.17.87-.33,1.32-.45.45-.13.91-.27,1.35-.34.89-.16,1.78-.38,2.71-.48,1.86-.22,3.8-.31,5.76-.15.49.04.98.08,1.48.12.49.07.98.15,1.47.22,1,.13,1.96.38,2.95.58,1.94.48,3.88,1.04,5.75,1.62,1.88.56,3.74,1.1,5.56,1.44,1.82.31,3.58.37,5.28.05,3.45-.52,6.1-2.88,8.5-5.75,2.38-2.91,4.62-6.18,7.34-8.98,1.37-1.39,2.83-2.68,4.42-3.73.4-.26.79-.52,1.18-.77.41-.23.82-.44,1.23-.65.42-.21.8-.44,1.23-.61.44-.16.88-.32,1.32-.48,3.51-1.21,6.92-1.16,9.81-.75,5.83.9,9.97,3.06,12.7,4.62,2.71,1.62,3.99,2.86,3.81,3.15Z"/>
    </g>
    <path class="cls-5" d="M530.5,373.98c.08.01.03.88-.14,2.55s-.47,4.17-.88,7.44c-.82,6.54-2.12,16.2-3.84,28.68l-.02.16-.08.15c-5.23,9.36-11.87,20.22-19.74,32.54-3.94,6.15-8.21,12.65-12.77,19.48-2.3,3.4-4.67,6.9-7.1,10.48-2.48,3.59-4.89,7.15-6.95,11.1-2.07,3.93-3.83,8.13-5.12,12.58-1.3,4.44-2.16,9.11-2.35,13.9-.02,1.2-.1,2.4-.02,3.6l.06,1.81.18,1.81c.08,1.21.35,2.4.53,3.61.12.6.28,1.18.42,1.78.14.6.28,1.19.48,1.77.66,2.36,1.71,4.59,2.94,6.69,1.23,2.11,2.85,3.98,4.72,5.51,1.88,1.52,4.06,2.67,6.42,3.32,2.36.65,4.9.72,7.42.43,2.54-.25,5.05-1.07,7.52-2.04,2.45-.99,4.85-2.41,7.26-3.75,4.73-2.91,9.23-6.37,13.55-10.18,4.23-3.91,8.39-8.06,12.2-12.64,15.44-18.18,27.7-40.67,37.02-65.31,9.31-24.7,15.63-51.69,19.17-79.96,3.38-28.3,3.99-57.88,1.69-88.03-.31-3.77-.62-7.54-.93-11.33-.43-3.78-.85-7.57-1.28-11.37-.23-1.9-.39-3.81-.68-5.71-.27-1.9-.54-3.8-.82-5.71-.27-1.9-.55-3.81-.82-5.72-.28-1.91-.53-3.83-.88-5.73-.66-3.81-1.33-7.64-1.99-11.47l-.5-2.88c-.18-.95-.41-1.89-.61-2.83-.41-1.89-.83-3.77-1.24-5.66-.36-1.9-.96-3.75-1.47-5.62-.53-1.87-1.06-3.73-1.59-5.61-.59-1.85-1.27-3.68-1.9-5.52l-.96-2.76c-.31-.92-.64-1.85-1.03-2.74-.98-2.33-1.95-4.66-2.92-6.98-.45-1.18-1.06-2.28-1.6-3.42l-1.66-3.39c-.56-1.12-1.09-2.27-1.68-3.37l-1.86-3.27-1.85-3.26-.92-1.63-1.02-1.57c-1.36-2.09-2.71-4.19-4.07-6.27-1.44-2.03-2.94-4.01-4.4-6.02-1.42-2.04-3.05-3.9-4.62-5.81-1.58-1.9-3.11-3.84-4.83-5.61-13.21-14.64-28.76-26.69-45.37-36.13-2.09-1.15-4.18-2.3-6.27-3.45-2.11-1.09-4.27-2.09-6.39-3.14l-3.19-1.55-3.26-1.39c-2.17-.92-4.32-1.88-6.5-2.75-4.42-1.6-8.75-3.38-13.21-4.69-2.22-.69-4.41-1.46-6.65-2.07-2.24-.6-4.47-1.2-6.69-1.8-2.21-.64-4.47-1.09-6.71-1.59-2.24-.48-4.46-1.02-6.7-1.44-2.25-.39-4.49-.77-6.72-1.16-1.12-.18-2.23-.41-3.35-.56l-3.36-.43c-2.24-.28-4.47-.57-6.69-.85-2.24-.18-4.46-.37-6.69-.55-4.44-.45-8.88-.49-13.28-.69-2.2-.13-4.4-.03-6.59-.04-2.19.02-4.37.03-6.55.05-2.17.11-4.34.21-6.5.32-2.16.12-4.32.17-6.45.41-2.14.2-4.27.4-6.4.59-1.06.11-2.12.18-3.18.31-1.05.14-2.11.29-3.16.43-2.1.29-4.19.57-6.28.86-1.05.13-2.08.3-3.11.5-1.03.19-2.06.37-3.09.56-2.06.37-4.11.74-6.15,1.11-2.03.41-4.04.9-6.05,1.34-2.01.45-4.01.91-6,1.36-1.95.54-3.9,1.04-5.82,1.61-7.68,2.34-14.99,5.44-21.83,9.13-13.7,7.39-25.45,17.14-35.35,27.73-9.91,10.62-18.09,22.04-24.99,33.47-6.88,11.45-12.58,22.88-17.36,33.95-4.81,11.06-8.76,21.76-12.11,31.87-6.68,20.24-11.04,38.12-14.15,52.82-3.1,14.7-4.95,26.23-6.13,34.06-.57,3.91-1,6.9-1.29,8.91-.29,2.01-.46,3.04-.55,3.03-.09,0-.09-1.05.03-3.08.12-2.03.37-5.05.79-8.99.85-7.89,2.39-19.5,5.21-34.32,2.83-14.81,6.92-32.84,13.38-53.3,3.25-10.22,7.09-21.05,11.84-32.27,4.72-11.23,10.37-22.84,17.25-34.53,6.9-11.66,15.13-23.36,25.2-34.3,10.06-10.91,22.08-21.03,36.21-28.77,7.06-3.87,14.62-7.12,22.57-9.59,1.99-.6,4.01-1.13,6.03-1.71,2.02-.47,4.06-.94,6.09-1.41,2.04-.46,4.08-.96,6.15-1.39,2.07-.38,4.16-.77,6.24-1.16,1.04-.19,2.09-.39,3.14-.58,1.05-.21,2.1-.38,3.16-.52,2.12-.3,4.25-.6,6.38-.9,1.07-.15,2.14-.3,3.21-.45,1.07-.14,2.15-.22,3.23-.33,2.16-.21,4.33-.42,6.51-.63,2.17-.25,4.37-.31,6.56-.44,2.2-.12,4.4-.23,6.62-.35,2.22-.03,4.44-.05,6.67-.08,2.23,0,4.47-.1,6.71.02,4.49.18,9.01.21,13.53.65,2.27.18,4.54.36,6.82.54,2.27.28,4.55.56,6.83.84l3.43.42c1.14.15,2.28.37,3.42.56,2.28.39,4.57.78,6.86,1.16,2.29.42,4.56.97,6.85,1.45,2.29.5,4.59.96,6.85,1.6,2.27.6,4.56,1.21,6.84,1.82,2.28.62,4.53,1.4,6.8,2.1,4.57,1.34,9.01,3.14,13.53,4.77,2.23.89,4.44,1.87,6.66,2.8l3.34,1.42,3.27,1.58c2.18,1.07,4.39,2.09,6.56,3.21,2.14,1.17,4.28,2.35,6.43,3.52,17.05,9.65,33.06,22.02,46.67,37.08,1.77,1.82,3.35,3.82,4.98,5.77,1.62,1.97,3.3,3.89,4.76,5.99,1.51,2.06,3.05,4.11,4.53,6.2,1.4,2.15,2.8,4.31,4.2,6.46l1.05,1.62.96,1.68,1.91,3.37,1.91,3.37c.61,1.14,1.15,2.32,1.73,3.47l1.71,3.49c.56,1.17,1.18,2.31,1.65,3.52,1,2.4,2.01,4.8,3.01,7.2.41.92.74,1.87,1.07,2.82l.99,2.85c.65,1.9,1.35,3.78,1.96,5.69.55,1.93,1.09,3.85,1.64,5.77.53,1.93,1.14,3.83,1.52,5.79.43,1.95.85,3.89,1.28,5.83.21.97.44,1.94.62,2.91l.5,2.9c.67,3.87,1.34,7.73,2,11.57.36,1.92.61,3.85.89,5.78.27,1.93.55,3.85.82,5.78.27,1.92.55,3.84.82,5.76.28,1.92.45,3.84.68,5.76.43,3.84.85,7.67,1.28,11.48.31,3.83.62,7.64.92,11.45,2.28,30.45,1.6,60.36-1.9,88.99-3.67,28.6-10.16,55.94-19.72,80.99-9.58,25-22.15,47.83-38.12,66.41-3.94,4.68-8.25,8.94-12.66,12.96-4.51,3.93-9.22,7.5-14.23,10.53-2.57,1.41-5.06,2.86-7.82,3.96-2.75,1.06-5.58,1.96-8.55,2.24-2.94.31-5.97.21-8.85-.6-2.87-.81-5.53-2.24-7.77-4.09-2.24-1.85-4.1-4.08-5.5-6.5-1.39-2.41-2.53-4.94-3.24-7.54-.22-.64-.37-1.29-.52-1.95-.14-.65-.31-1.3-.44-1.95-.19-1.31-.46-2.61-.54-3.92l-.17-1.95-.05-1.94c-.07-1.29.02-2.57.06-3.85.25-5.1,1.21-10.02,2.63-14.67,1.41-4.66,3.3-9.04,5.5-13.11,2.18-4.07,4.8-7.84,7.27-11.33,2.47-3.55,4.87-7,7.21-10.37,4.64-6.76,8.99-13.18,13.01-19.26,8.03-12.16,14.86-22.9,20.25-32.06l-.11.31c2-12.44,3.58-22.05,4.71-28.55.56-3.25,1.01-5.72,1.34-7.37.33-1.66.53-2.49.61-2.48Z"/>
    <path class="cls-5" d="M206.79,216.15c-.29.25-3.99-3.6-10.38-10.71l1.61.04c-3.01,3.52-6.71,7.76-10.99,12.63l-1.7,1.93-.86-2.49c-1.89-5.46-4-11.57-6.3-18.24l3.07.74c-4.07,4.14-8.42,8.57-13.02,13.25l-2.05,2.09-1.31-2.66c-2.81-5.69-5.76-11.67-8.84-17.91l3.83.44c-4.08,5.11-8.31,10.42-12.68,15.9l-2.85,3.57-1.33-4.35c-1.26-4.12-2.18-8.2-2.99-12.45-.78-4.24-1.39-8.58-1.76-13.01-.72-8.85-.68-18.08.89-27.35,1.88-11.31,5.94-22.23,12.51-31.07,6.45-8.91,15.06-15.61,24.02-19.98,1.12-.54,2.22-1.14,3.34-1.62,1.12-.47,2.24-.94,3.35-1.4.56-.23,1.11-.46,1.66-.69.56-.2,1.12-.41,1.68-.61,1.12-.4,2.23-.8,3.33-1.19,4.47-1.42,8.87-2.65,13.24-3.35,2.17-.44,4.34-.62,6.46-.89,1.06-.1,2.12-.13,3.17-.2.52-.03,1.04-.06,1.56-.09.52,0,1.04,0,1.55,0,4.11-.08,8.06.35,11.78.96,7.44,1.28,13.87,3.8,19.08,6.66,2.62,1.42,4.92,2.97,6.98,4.46,2.03,1.53,3.81,3.01,5.33,4.44,6.07,5.74,8.25,9.91,7.98,10.07-.31.23-3-3.46-9.28-8.57-1.57-1.27-3.38-2.59-5.42-3.94-2.07-1.31-4.34-2.68-6.91-3.92-5.11-2.49-11.28-4.63-18.34-5.62-3.53-.47-7.25-.77-11.14-.59-.49.01-.97.02-1.46.03-.49.04-.98.08-1.48.12-.99.09-1.99.14-2.99.26-2,.3-4.05.51-6.1.98-4.13.75-8.31,2.02-12.56,3.44-1.05.4-2.11.8-3.18,1.2-.53.2-1.07.4-1.6.61-.53.23-1.06.46-1.59.69-1.06.46-2.13.93-3.2,1.4-1.07.48-2.08,1.05-3.13,1.57-8.36,4.23-16.21,10.48-22.09,18.72-6,8.17-9.74,18.29-11.53,28.98-1.49,8.75-1.56,17.58-.91,26.09.34,4.26.89,8.45,1.62,12.55.73,4.07,1.62,8.14,2.72,11.86l-4.18-.78c4.44-5.42,8.74-10.67,12.89-15.73l2.3-2.81,1.53,3.25c2.96,6.3,5.8,12.34,8.5,18.07l-3.36-.58c4.72-4.56,9.18-8.88,13.36-12.91l2.2-2.12.88,2.87c2.07,6.75,3.96,12.93,5.65,18.45l-2.56-.56c4.49-4.69,8.4-8.72,11.65-12.03l.88-.9.73.93c5.89,7.53,9.03,11.84,8.74,12.09Z"/>
  </g>
</svg>
